<svg width="28" height="26" viewBox="0 0 28 26" fill="none" xmlns="http://www.w3.org/2000/svg">
<path d="M16.0952 17.9524C16.0952 22.397 12.4922 26 8.04762 26C3.60304 26 0 22.397 0 17.9524C0 13.5078 3.60304 9.90475 8.04762 9.90475C12.4922 9.90475 16.0952 13.5078 16.0952 17.9524ZM3.44034 17.9524C3.44034 20.4969 5.50309 22.5597 8.04762 22.5597C10.5921 22.5597 12.6549 20.4969 12.6549 17.9524C12.6549 15.4078 10.5921 13.3451 8.04762 13.3451C5.50309 13.3451 3.44034 15.4078 3.44034 17.9524Z" fill="#D1392A"/>
<path fill-rule="evenodd" clip-rule="evenodd" d="M11.1428 8.04762V0H13.2889V8.04762H11.1428ZM27.2383 16.0952H19.1907V13.4127H27.2383V16.0952ZM18.1183 10.7302L25.0929 3.75558L23.196 1.85874L16.2214 8.83334L18.1183 10.7302Z" fill="#C14635"/>
</svg>
